<?xml version="1.0" encoding="UTF-8" standalone="no"?>
<!-- Created with Inkscape (http://www.inkscape.org/) -->

<svg
   version="1.1"
   id="svg1"
   width="48"
   height="24"
   viewBox="0 0 48 24"
   sodipodi:docname="CarR1.svg"
   inkscape:version="1.4.3 (0d15f75, 2025-12-25)"
   xmlns:inkscape="http://www.inkscape.org/namespaces/inkscape"
   xmlns:sodipodi="http://sodipodi.sourceforge.net/DTD/sodipodi-0.dtd"
   xmlns="http://www.w3.org/2000/svg"
   xmlns:svg="http://www.w3.org/2000/svg">
  <defs
     id="defs1" />
  <sodipodi:namedview
     id="namedview1"
     pagecolor="#ffffff"
     bordercolor="#000000"
     borderopacity="0.25"
     inkscape:showpageshadow="2"
     inkscape:pageopacity="0.0"
     inkscape:pagecheckerboard="0"
     inkscape:deskcolor="#d1d1d1"
     showgrid="false"
     inkscape:zoom="22.627417"
     inkscape:cx="20.815456"
     inkscape:cy="14.871339"
     inkscape:window-width="1920"
     inkscape:window-height="1009"
     inkscape:window-x="-8"
     inkscape:window-y="-8"
     inkscape:window-maximized="1"
     inkscape:current-layer="layer2" />
  <g
     inkscape:groupmode="layer"
     id="layer2"
     inkscape:label="Car">
    <path
       style="display:inline;fill:#ffffff;fill-opacity:1;stroke:#000000;stroke-width:1.13385827;stroke-dasharray:none;stroke-opacity:1;paint-order:fill markers stroke;stroke-linejoin:round;stroke-linecap:round"
       d="m 26.03,17.48 c -0.02,-0.65 -6.59,-1.01 -18.28,-1 l -18.25,0.02 -0.89,-5.25 c -0.52,-3.07 -0.52,-7.43 0,-10.5 l 0.89,-5.25 18.25,0.02 c 11.69,0.01 18.26,-0.35 18.28,-1 0.02,-0.56 0.49,-0.23 1.05,0.73 0.56,0.96 1.59,1.75 2.3,1.75 0.7,0 2.25,1.04 3.45,2.31 3.1,3.31 3.03,10.54 -0.14,13.52 -1.28,1.19 -2.83,2.17 -3.45,2.17 -0.62,0 -1.59,0.79 -2.16,1.75 -0.56,0.96 -1.03,1.29 -1.05,0.73 z m 0.18,-7.5 C 28.5,7.17 28.48,4.81 26.15,1.93 24.69,0.14 23.24,-0.37 19.4,-0.43 L 14.5,-0.5 14.19,4.88 c -0.45,7.87 -0.02,8.47 5.54,7.85 3.2,-0.36 5.26,-1.23 6.48,-2.74 z M 5.8,9.8 C 7.35,8.25 7.35,3.75 5.8,2.2 4.24,0.64 -5.24,0.64 -6.8,2.2 c -1.55,1.55 -1.55,6.05 0,7.6 1.56,1.56 11.04,1.56 12.6,0 z"
       id="path1154"
       transform="translate(12,6)"
       inkscape:highlight-color="#717171" />
  </g>
</svg>
